<?xml version="1.0" encoding="utf-8"?>
<svg xmlns="http://www.w3.org/2000/svg" xmlns:xlink="http://www.w3.org/1999/xlink" version="1.1" viewBox="0 0 129 129" enable-background="new 0 0 129 129" width="24px" height="24px">
  <g>
    <g>
      <path d="m10.6,58.8h44.2c2.3,0 4.1-1.8 4.1-4.1v-44.2c0-2.3-1.8-4.1-4.1-4.1h-44.2c-2.3,0-4.1,1.8-4.1,4.1v44.2c0,2.3 1.8,4.1 4.1,4.1zm4-44.2h36v36h-36v-36z" fill="#FFFFFF"/>
      <path d="m118.4,58.8c2.3,0 4.1-1.8 4.1-4.1v-44.2c0-2.3-1.8-4.1-4.1-4.1h-44.2c-2.3,0-4.1,1.8-4.1,4.1v44.2c0,2.3 1.8,4.1 4.1,4.1h44.2zm-40.1-44.2h36v36h-36v-36z" fill="#FFFFFF"/>
      <path d="m10.6,82.4c-2.3,0-4.1,1.8-4.1,4.1s1.8,4.1 4.1,4.1l107.9,.1c2.3,0 4.1-1.8 4.1-4.1 0-2.3-1.8-4.1-4.1-4.1l-107.9-.1c5.32907e-15,0 5.32907e-15,0 5.32907e-15,0z" fill="#FFFFFF"/>
      <path d="m10.5,122.4l107.9,.1c2.3,0 4.1-1.8 4.1-4.1 0-2.3-1.8-4.1-4.1-4.1l-107.9-.1c-2.3,0-4.1,1.8-4.1,4.1s1.9,4.1 4.1,4.1z" fill="#FFFFFF"/>
    </g>
  </g>
</svg>
