<?xml version="1.0" encoding="UTF-8" standalone="no"?>
<svg
   xmlns:dc="http://purl.org/dc/elements/1.1/"
   xmlns:cc="http://creativecommons.org/ns#"
   xmlns:rdf="http://www.w3.org/1999/02/22-rdf-syntax-ns#"
   xmlns:svg="http://www.w3.org/2000/svg"
   xmlns="http://www.w3.org/2000/svg"
   xmlns:sodipodi="http://sodipodi.sourceforge.net/DTD/sodipodi-0.dtd"
   xmlns:inkscape="http://www.inkscape.org/namespaces/inkscape"
   version="1.1"
   viewBox="0 0 129 129"
   enable-background="new 0 0 129 129"
   width="24px"
   height="24px"
   id="svg12"
   sodipodi:docname="pages_new.svg"
   inkscape:version="0.92.0 r15299">
  <metadata
     id="metadata18">
    <rdf:RDF>
      <cc:Work
         rdf:about="">
        <dc:format>image/svg+xml</dc:format>
        <dc:type
           rdf:resource="http://purl.org/dc/dcmitype/StillImage" />
        <dc:title></dc:title>
      </cc:Work>
    </rdf:RDF>
  </metadata>
  <defs
     id="defs16" />
  <sodipodi:namedview
     pagecolor="#ffffff"
     bordercolor="#666666"
     borderopacity="1"
     objecttolerance="10"
     gridtolerance="10"
     guidetolerance="10"
     inkscape:pageopacity="0"
     inkscape:pageshadow="2"
     inkscape:window-width="1920"
     inkscape:window-height="1027"
     id="namedview14"
     showgrid="false"
     inkscape:zoom="2.4583333"
     inkscape:cx="99.820794"
     inkscape:cy="-41.19843"
     inkscape:window-x="-8"
     inkscape:window-y="-8"
     inkscape:window-maximized="1"
     inkscape:current-layer="g8" />
  <g
     id="g10">
    <g
       id="g8">
      <path
         d="m 18.7,122.5 h 91.6 c 2.3,0 4.1,-1.8 4.1,-4.1 V 10.5 c 0,-2.3 -1.8,-4.1 -4.1,-4.1 H 41.6 c -0.3,0 -0.7,0 -1,0.1 -0.1,0 -0.2,0.1 -0.2,0.1 C 40.1,6.7 39.9,6.8 39.6,6.9 39.5,7 39.4,7 39.3,7.1 39,7.3 38.7,7.5 38.5,7.8 l -22.9,27 c -0.3,0.3 -0.5,0.7 -0.7,1.1 -0.1,0.1 -0.1,0.3 -0.1,0.4 -0.1,0.3 -0.1,0.6 -0.2,0.9 0,0.1 0,0.1 0,0.2 v 80.9 c 0,2.4 1.9,4.2 4.1,4.2 z M 37.5,21.7 v 11.8 h -10 z M 22.8,41.6 h 18.8 c 2.3,0 4.1,-1.8 4.1,-4.1 V 14.6 h 60.5 v 99.7 H 22.8 Z"
         id="path2"
         inkscape:connector-curvature="0"
         style="fill:#ffffff" />
      <path
         d="M 68.6,78.831568 V 50.168432 c 0,-2.3 -1.8,-4.1 -4.1,-4.1 -2.3,0 -4.1,1.8 -4.1,4.1 v 28.663136 c 0,2.3 1.8,4.1 4.1,4.1 2.2,0 4.1,-1.8 4.1,-4.1 z"
         id="path6"
         inkscape:connector-curvature="0"
         style="fill:#ffffff"
         sodipodi:nodetypes="sssssss" />
      <path
         d="M 78.831568,60.4 H 50.168432 c -2.3,0 -4.1,1.8 -4.1,4.1 0,2.3 1.8,4.1 4.1,4.1 h 28.663136 c 2.3,0 4.1,-1.8 4.1,-4.1 0,-2.2 -1.8,-4.1 -4.1,-4.1 z"
         id="path6-0"
         inkscape:connector-curvature="0"
         style="fill:#ffffff;stroke-width:1"
         sodipodi:nodetypes="sssssss" />
    </g>
  </g>
</svg>
